<svg xmlns="http://www.w3.org/2000/svg" viewBox="0 0 1600 900" preserveAspectRatio="xMidYMid slice">
  <defs>
    <linearGradient id="sky" x1="0" x2="0" y1="0" y2="1">
      <stop offset="0" stop-color="#0b3558"/>
      <stop offset="0.48" stop-color="#3f7898"/>
      <stop offset="0.72" stop-color="#b9b8aa"/>
      <stop offset="1" stop-color="#0a2943"/>
    </linearGradient>
    <linearGradient id="water" x1="0" x2="0" y1="0" y2="1">
      <stop offset="0" stop-color="#123d5b"/>
      <stop offset="1" stop-color="#061c31"/>
    </linearGradient>
    <linearGradient id="shipHull" x1="0" x2="1" y1="0" y2="0">
      <stop offset="0" stop-color="#101820"/>
      <stop offset="0.55" stop-color="#222930"/>
      <stop offset="1" stop-color="#0a0e12"/>
    </linearGradient>
    <filter id="soft">
      <feGaussianBlur stdDeviation="10"/>
    </filter>
  </defs>

  <rect width="1600" height="900" fill="url(#sky)"/>
  <g opacity="0.55" fill="#fff" filter="url(#soft)">
    <ellipse cx="1040" cy="220" rx="135" ry="42"/>
    <ellipse cx="1135" cy="205" rx="110" ry="38"/>
    <ellipse cx="1260" cy="230" rx="170" ry="46"/>
    <ellipse cx="1390" cy="245" rx="120" ry="38"/>
    <ellipse cx="600" cy="245" rx="150" ry="42"/>
    <ellipse cx="720" cy="230" rx="110" ry="34"/>
  </g>

  <rect y="515" width="1600" height="385" fill="url(#water)"/>
  <g opacity="0.38" stroke="#9db8c7" stroke-width="2">
    <path d="M0 575 C90 555 155 592 245 570 S420 562 520 580 S715 566 845 576 S1040 560 1160 578 S1360 568 1600 574" fill="none"/>
    <path d="M0 632 C120 605 230 650 370 626 S620 618 780 635 S1040 612 1210 634 S1430 625 1600 638" fill="none"/>
    <path d="M0 700 C130 680 290 713 440 695 S680 684 835 706 S1090 682 1270 704 S1475 695 1600 706" fill="none"/>
  </g>

  <g transform="translate(545 170)">
    <path d="M500 60 L500 345" stroke="#c6d1d8" stroke-width="4"/>
    <path d="M590 95 L590 340" stroke="#c6d1d8" stroke-width="3"/>
    <path d="M360 105 L360 362" stroke="#c6d1d8" stroke-width="3"/>
    <path d="M335 300 L650 300 L710 440 L290 440 Z" fill="url(#shipHull)"/>
    <path d="M300 438 L710 438 L664 510 L354 510 Z" fill="#12171c"/>
    <path d="M354 510 L664 510 L620 565 L408 565 Z" fill="#812f26"/>
    <path d="M360 140 L635 140 L662 300 L330 300 Z" fill="#f0f1eb"/>
    <rect x="392" y="82" width="202" height="72" fill="#e6e8e3"/>
    <rect x="438" y="20" width="112" height="72" fill="#f1f2ed"/>
    <rect x="456" y="-16" width="76" height="40" fill="#e8e9e4"/>
    <g fill="#171d22">
      <rect x="400" y="160" width="28" height="17"/>
      <rect x="450" y="160" width="28" height="17"/>
      <rect x="500" y="160" width="28" height="17"/>
      <rect x="550" y="160" width="28" height="17"/>
      <rect x="600" y="160" width="28" height="17"/>
      <rect x="420" y="215" width="26" height="16"/>
      <rect x="470" y="215" width="26" height="16"/>
      <rect x="520" y="215" width="26" height="16"/>
      <rect x="570" y="215" width="26" height="16"/>
    </g>
    <path d="M335 300 L650 300 L710 440 L290 440 Z" fill="none" stroke="#404850" stroke-width="5"/>
    <path d="M380 340 C450 322 560 328 650 350" stroke="#f0b72c" stroke-width="7" fill="none"/>
    <rect x="660" y="266" width="85" height="22" fill="#f2f0e7"/>
    <rect x="692" y="220" width="20" height="48" fill="#f2f0e7"/>
  </g>

  <g transform="translate(430 385)">
    <path d="M70 0 L70 120" stroke="#e5ca5b" stroke-width="4"/>
    <path d="M20 85 L170 85 L200 145 L0 145 Z" fill="#e6a51b"/>
    <path d="M28 145 L196 145 L165 188 L55 188 Z" fill="#23333d"/>
    <rect x="56" y="42" width="86" height="48" fill="#f2c033"/>
    <rect x="82" y="8" width="30" height="35" fill="#f7d25a"/>
    <path d="M55 188 L165 188 L145 210 L76 210 Z" fill="#0b1923"/>
  </g>

  <g opacity="0.5" fill="#f5f1e1">
    <rect x="1350" y="447" width="115" height="55"/>
    <rect x="1310" y="478" width="180" height="30"/>
    <rect x="1468" y="430" width="22" height="78"/>
  </g>
</svg>
